<svg width="48" height="48" viewBox="0 0 48 48" fill="none" xmlns="http://www.w3.org/2000/svg">
<path d="M11.6544 12.0594C11.1544 12.1594 10.6484 12.4154 10.3424 12.8734C9.73043 13.7874 9.9884 15.0754 10.9064 15.6854L22.9064 23.6854C23.5764 24.1314 24.4845 24.1314 25.1545 23.6854L37.1545 15.6854C38.0725 15.0754 38.3305 13.7874 37.7185 12.8734C37.1065 11.9574 35.8225 11.6994 34.9065 12.3094L24.0305 19.5594L13.1545 12.3094C12.6965 12.0054 12.1565 11.9594 11.6544 12.0594ZM11.6544 24.0594C11.1544 24.1594 10.6484 24.4154 10.3424 24.8734C9.73043 25.7874 9.9884 27.0754 10.9064 27.6854L22.9064 35.6853C23.5764 36.1313 24.4845 36.1313 25.1545 35.6853L37.1545 27.6854C38.0725 27.0754 38.3305 25.7874 37.7185 24.8734C37.1065 23.9574 35.8225 23.6994 34.9065 24.3094L24.0305 31.5594L13.1545 24.3094C12.6965 24.0054 12.1565 23.9594 11.6544 24.0594Z" fill="white" fill-opacity="0.8"/>
</svg>
