<svg width="17" height="22" viewBox="0 0 17 22" fill="none" xmlns="http://www.w3.org/2000/svg">
<path d="M8.17682 5.17212C7.58166 5.17212 6.99986 5.3486 6.50501 5.67926C6.01015 6.00991 5.62445 6.47988 5.39669 7.02974C5.16894 7.57959 5.10935 8.18464 5.22546 8.76836C5.34157 9.35209 5.62816 9.88827 6.049 10.3091C6.46985 10.73 7.00603 11.0166 7.58976 11.1327C8.17348 11.2488 8.77853 11.1892 9.32838 10.9614C9.87824 10.7337 10.3482 10.348 10.6789 9.85312C11.0095 9.35826 11.186 8.77646 11.186 8.1813C11.1851 7.3835 10.8678 6.61863 10.3036 6.05449C9.73949 5.49036 8.97462 5.17303 8.17682 5.17212ZM8.17682 9.68589C7.87924 9.68589 7.58834 9.59765 7.34091 9.43232C7.09348 9.267 6.90063 9.03201 6.78676 8.75709C6.67288 8.48216 6.64308 8.17963 6.70114 7.88777C6.75919 7.59591 6.90249 7.32782 7.11291 7.1174C7.32333 6.90697 7.59142 6.76368 7.88329 6.70562C8.17515 6.64757 8.47767 6.67736 8.7526 6.79124C9.02753 6.90512 9.26251 7.09797 9.42784 7.3454C9.59317 7.59282 9.68141 7.88372 9.68141 8.1813C9.68095 8.5802 9.52228 8.96264 9.24022 9.2447C8.95815 9.52677 8.57572 9.68543 8.17682 9.68589Z" fill="#4EF1E0"/>
<path d="M13.9592 2.39442C12.5295 0.965081 10.6211 0.115994 8.60213 0.011036C6.5832 -0.0939218 4.59696 0.552691 3.02675 1.82608C1.45654 3.09946 0.413669 4.90935 0.0994203 6.90643C-0.214828 8.90351 0.221819 10.9462 1.32509 12.6403L7.00995 21.3675C7.13646 21.5617 7.30944 21.7213 7.5132 21.8317C7.71696 21.9422 7.94507 22 8.17684 22C8.40861 22 8.63671 21.9422 8.84047 21.8317C9.04423 21.7213 9.21721 21.5617 9.34372 21.3675L15.0288 12.6403C16.0525 11.0688 16.5049 9.19315 16.3102 7.32776C16.1154 5.46238 15.2854 3.72062 13.9592 2.39442ZM13.7681 11.819L8.17686 20.4022L2.58556 11.819C0.874088 9.19165 1.24116 5.67561 3.45837 3.45831C4.078 2.83866 4.81362 2.34712 5.62322 2.01177C6.43282 1.67641 7.30055 1.50381 8.17686 1.50381C9.05317 1.50381 9.9209 1.67641 10.7305 2.01177C11.5401 2.34712 12.2757 2.83866 12.8954 3.45831C15.1126 5.67561 15.4796 9.19165 13.7681 11.819Z" fill="#4EF1E0"/>
</svg>
